# xmcd
#
# Track frame offsets:
#	150
#	17589
#	28291
#	54919
#	93875
#	104084
#	165462
#	177975
#	196278
#	222002
#	235424
#	248755
#	258228
#	266659
#	280520
#	288555
#	315964
#
# Disc length: 4418 seconds
#
# Revision: 0
# Processed by: cddbd v1.5.2PL0 Copyright (c) Steve Scherf et al.
# Submitted via: EZCDAudioConverter 3.1.0.1
#
DISCID=e7114011
DTITLE=Teksasys Latgalīši - Dvieselis Steigys [CDOne)
DYEAR=1900
DGENRE=
TTITLE0=Screen
TTITLE1=Daugaveņa
TTITLE2=Leģenda
TTITLE3=Latgolys Skices
TTITLE4=Rūžeņa
TTITLE5=Latviešu Popūrijs
TTITLE6=Pusnakts Triādis
TTITLE7=Gaigalovys Kūkles Triptihs
TTITLE8=Meditation
TTITLE9=Dzeiveite
TTITLE10=Dāvāja Māriņa
TTITLE11=Kōzu Dzīsme
TTITLE12=Eima, Eima, Mōseņis
TTITLE13=Arietta
TTITLE14=Чёрные Глаза
TTITLE15=Latgalīšu Melodeju Skreine
TTITLE16=Brandenburgisches Konzert
EXTD=
EXTT0=
EXTT1=
EXTT2=
EXTT3=
EXTT4=
EXTT5=
EXTT6=
EXTT7=
EXTT8=
EXTT9=
EXTT10=
EXTT11=
EXTT12=
EXTT13=
EXTT14=
EXTT15=
EXTT16=
PLAYORDER=
